<svg width="184" height="104" viewBox="0 0 184 104" fill="none" xmlns="http://www.w3.org/2000/svg">
<g clip-path="url(#clip0_0_118)">
<path d="M94.8389 0.564758H88.6657V103.451H94.8389V0.564758Z" fill="white"/>
<mask id="mask0_0_118" style="mask-type:luminance" maskUnits="userSpaceOnUse" x="88" y="0" width="7" height="104">
<path d="M94.8467 0.569283H88.6735V103.455H94.8467V0.569283Z" fill="white"/>
</mask>
<g mask="url(#mask0_0_118)">
<path d="M190.356 -140.441L-6.86777 5.49612" stroke="#F50A23" stroke-width="3.7039" stroke-miterlimit="10"/>
<path d="M190.356 -130.877L-6.86777 15.0602" stroke="#F50A23" stroke-width="3.7039" stroke-miterlimit="10"/>
<path d="M190.356 -121.327L-6.86777 24.6118" stroke="#F50A23" stroke-width="3.7039" stroke-miterlimit="10"/>
<path d="M190.356 -111.756L-6.86777 34.1816" stroke="#F50A23" stroke-width="3.7039" stroke-miterlimit="10"/>
<path d="M190.356 -102.205L-6.86777 43.7323" stroke="#F50A23" stroke-width="3.7039" stroke-miterlimit="10"/>
<path d="M190.356 -92.6411L-6.86777 53.2964" stroke="#F50A23" stroke-width="3.7039" stroke-miterlimit="10"/>
<path d="M190.356 -83.0905L-6.86777 62.847" stroke="#F50A23" stroke-width="3.7039" stroke-miterlimit="10"/>
<path d="M190.356 -73.5264L-6.86777 72.4111" stroke="#F50A23" stroke-width="3.7039" stroke-miterlimit="10"/>
<path d="M190.356 -63.9758L-6.86777 81.9617" stroke="#F50A23" stroke-width="3.7039" stroke-miterlimit="10"/>
<path d="M190.356 -54.4117L-6.86777 91.5258" stroke="#F50A23" stroke-width="3.7039" stroke-miterlimit="10"/>
<path d="M190.356 -44.861L-6.86777 101.076" stroke="#F50A23" stroke-width="3.7039" stroke-miterlimit="10"/>
<path d="M190.356 -35.2902L-6.86777 110.647" stroke="#F50A23" stroke-width="3.7039" stroke-miterlimit="10"/>
<path d="M190.356 -25.7396L-6.86777 120.198" stroke="#F50A23" stroke-width="3.7039" stroke-miterlimit="10"/>
<path d="M190.356 -16.1755L-6.86777 129.763" stroke="#F50A23" stroke-width="3.7039" stroke-miterlimit="10"/>
<path d="M190.356 -6.62489L-6.86777 139.313" stroke="#F50A23" stroke-width="3.7039" stroke-miterlimit="10"/>
<path d="M190.356 2.93918L-6.86777 148.877" stroke="#F50A23" stroke-width="3.7039" stroke-miterlimit="10"/>
<path d="M190.356 12.4898L-6.86777 158.427" stroke="#F50A23" stroke-width="3.7039" stroke-miterlimit="10"/>
<path d="M190.356 22.0539L-6.86777 167.991" stroke="#F50A23" stroke-width="3.7039" stroke-miterlimit="10"/>
<path d="M190.356 31.6045L-6.86777 177.542" stroke="#F50A23" stroke-width="3.7039" stroke-miterlimit="10"/>
<path d="M190.356 41.1686L-6.86777 187.106" stroke="#F50A23" stroke-width="3.7039" stroke-miterlimit="10"/>
<path d="M190.356 50.726L-6.86777 196.663" stroke="#F50A23" stroke-width="3.7039" stroke-miterlimit="10"/>
<path d="M190.356 60.2901L-6.86777 206.228" stroke="#F50A23" stroke-width="3.7039" stroke-miterlimit="10"/>
<path d="M190.356 69.8407L-6.86777 215.778" stroke="#F50A23" stroke-width="3.7039" stroke-miterlimit="10"/>
<path d="M190.356 79.4048L-6.86777 225.343" stroke="#F50A23" stroke-width="3.7039" stroke-miterlimit="10"/>
<path d="M190.356 88.9554L-6.86777 234.893" stroke="#F50A23" stroke-width="3.7039" stroke-miterlimit="10"/>
<path d="M190.356 98.5195L-6.86777 244.457" stroke="#F50A23" stroke-width="3.7039" stroke-miterlimit="10"/>
</g>
<path d="M0.108917 48.9833H183.868V55.033H0.108917" fill="white"/>
<mask id="mask1_0_118" style="mask-type:luminance" maskUnits="userSpaceOnUse" x="0" y="49" width="184" height="7">
<path d="M0.103455 49.015H183.863V55.0647H0.103455" fill="white"/>
</mask>
<g mask="url(#mask1_0_118)">
<path d="M-144.139 -87.5537L3.75328 112.31" stroke="#7CA67A" stroke-width="3.75367" stroke-miterlimit="10"/>
<path d="M-134.46 -87.5537L13.4316 112.31" stroke="#7CA67A" stroke-width="3.75367" stroke-miterlimit="10"/>
<path d="M-124.762 -87.5537L23.1301 112.31" stroke="#7CA67A" stroke-width="3.75367" stroke-miterlimit="10"/>
<path d="M-115.083 -87.5537L32.8085 112.31" stroke="#7CA67A" stroke-width="3.75367" stroke-miterlimit="10"/>
<path d="M-105.405 -87.5537L42.4868 112.31" stroke="#7CA67A" stroke-width="3.75367" stroke-miterlimit="10"/>
<path d="M-95.72 -87.5537L52.1719 112.31" stroke="#7CA67A" stroke-width="3.75367" stroke-miterlimit="10"/>
<path d="M-86.0148 -87.5537L61.8771 112.31" stroke="#7CA67A" stroke-width="3.75367" stroke-miterlimit="10"/>
<path d="M-76.3297 -87.5537L71.5621 112.31" stroke="#7CA67A" stroke-width="3.75367" stroke-miterlimit="10"/>
<path d="M-66.6514 -87.5537L81.2405 112.31" stroke="#7CA67A" stroke-width="3.75367" stroke-miterlimit="10"/>
<path d="M-56.9596 -87.5537L90.9322 112.31" stroke="#7CA67A" stroke-width="3.75367" stroke-miterlimit="10"/>
<path d="M-47.2745 -87.5537L100.617 112.31" stroke="#7CA67A" stroke-width="3.75367" stroke-miterlimit="10"/>
<path d="M-37.5962 -87.5537L110.296 112.31" stroke="#7CA67A" stroke-width="3.75367" stroke-miterlimit="10"/>
<path d="M-27.9044 -87.5537L119.987 112.31" stroke="#7CA67A" stroke-width="3.75367" stroke-miterlimit="10"/>
<path d="M-18.2194 -87.5537L129.672 112.31" stroke="#7CA67A" stroke-width="3.75367" stroke-miterlimit="10"/>
<path d="M-8.54102 -87.5537L139.351 112.31" stroke="#7CA67A" stroke-width="3.75367" stroke-miterlimit="10"/>
<path d="M1.14404 -87.5537L149.036 112.31" stroke="#7CA67A" stroke-width="3.75367" stroke-miterlimit="10"/>
<path d="M10.8493 -87.5537L158.741 112.31" stroke="#7CA67A" stroke-width="3.75367" stroke-miterlimit="10"/>
<path d="M20.5343 -87.5537L168.426 112.31" stroke="#7CA67A" stroke-width="3.75367" stroke-miterlimit="10"/>
<path d="M30.2127 -87.5537L178.104 112.31" stroke="#7CA67A" stroke-width="3.75367" stroke-miterlimit="10"/>
<path d="M39.8977 -87.5537L187.79 112.31" stroke="#7CA67A" stroke-width="3.75367" stroke-miterlimit="10"/>
<path d="M49.5895 -87.5537L197.481 112.31" stroke="#7CA67A" stroke-width="3.75367" stroke-miterlimit="10"/>
<path d="M59.2678 -87.5537L207.16 112.31" stroke="#7CA67A" stroke-width="3.75367" stroke-miterlimit="10"/>
<path d="M68.9596 -87.5537L216.851 112.31" stroke="#7CA67A" stroke-width="3.75367" stroke-miterlimit="10"/>
<path d="M78.6447 -87.5537L226.536 112.31" stroke="#7CA67A" stroke-width="3.75367" stroke-miterlimit="10"/>
<path d="M88.3297 -87.5537L236.222 112.31" stroke="#7CA67A" stroke-width="3.75367" stroke-miterlimit="10"/>
<path d="M98.0148 -87.5537L245.907 112.31" stroke="#7CA67A" stroke-width="3.75367" stroke-miterlimit="10"/>
<path d="M107.713 -87.5537L255.605 112.31" stroke="#7CA67A" stroke-width="3.75367" stroke-miterlimit="10"/>
<path d="M117.405 -87.5537L265.297 112.31" stroke="#7CA67A" stroke-width="3.75367" stroke-miterlimit="10"/>
<path d="M127.083 -87.5537L274.975 112.31" stroke="#7CA67A" stroke-width="3.75367" stroke-miterlimit="10"/>
<path d="M136.768 -87.5537L284.66 112.31" stroke="#7CA67A" stroke-width="3.75367" stroke-miterlimit="10"/>
</g>
<path d="M91.4557 54.923L112.649 46.7869V40.1859L91.4557 48.322C91.2939 48.3833 91.1886 48.5383 91.1886 48.7106V55.3116C91.1886 55.1393 91.2949 54.9843 91.4557 54.923Z" fill="#F50A23"/>
<path d="M91.4557 49.1035L112.649 57.2397V63.8406L91.4557 55.7045C91.2939 55.6432 91.1886 55.4882 91.1886 55.3159V48.7149C91.1886 48.8872 91.2949 49.0423 91.4557 49.1035Z" fill="#F50A23"/>
<path d="M92.5088 49.1035L71.3152 57.2397V63.8406L92.5088 55.7045C92.6706 55.6432 92.7759 55.4882 92.7759 55.3159V48.7149C92.7759 48.8872 92.6696 49.0423 92.5088 49.1035Z" fill="#F50A23"/>
<path d="M92.5088 54.923L71.3152 46.7869V40.1859L92.5088 48.322C92.6706 48.3833 92.7759 48.5383 92.7759 48.7106V55.3116C92.7759 55.1393 92.6696 54.9843 92.5088 54.923Z" fill="#F50A23"/>
</g>
<defs>
<clipPath id="clip0_0_118">
<rect width="183.759" height="102.886" fill="white" transform="translate(0.117188 0.5625)"/>
</clipPath>
</defs>
</svg>
