<svg width="183" height="102" viewBox="0 0 183 102" fill="none" xmlns="http://www.w3.org/2000/svg">
<g clip-path="url(#clip0_0_9)">
<path d="M94.3303 0.0022583H88.1826V102.002H94.3303V0.0022583Z" fill="white"/>
<mask id="mask0_0_9" style="mask-type:luminance" maskUnits="userSpaceOnUse" x="88" y="0" width="7" height="103">
<path d="M94.338 0.00674438H88.1904V102.007H94.338V0.00674438Z" fill="white"/>
</mask>
<g mask="url(#mask0_0_9)">
<path d="M189.452 -139.789L-6.95609 4.89113" stroke="#F50A23" stroke-width="3.7039" stroke-miterlimit="10"/>
<path d="M189.452 -130.308L-6.95609 14.3728" stroke="#F50A23" stroke-width="3.7039" stroke-miterlimit="10"/>
<path d="M189.452 -120.839L-6.95609 23.8421" stroke="#F50A23" stroke-width="3.7039" stroke-miterlimit="10"/>
<path d="M189.452 -111.351L-6.95609 33.3296" stroke="#F50A23" stroke-width="3.7039" stroke-miterlimit="10"/>
<path d="M189.452 -101.883L-6.95609 42.798" stroke="#F50A23" stroke-width="3.7039" stroke-miterlimit="10"/>
<path d="M189.452 -92.4009L-6.95609 52.2797" stroke="#F50A23" stroke-width="3.7039" stroke-miterlimit="10"/>
<path d="M189.452 -82.9325L-6.95609 61.7481" stroke="#F50A23" stroke-width="3.7039" stroke-miterlimit="10"/>
<path d="M189.452 -73.4508L-6.95609 71.2298" stroke="#F50A23" stroke-width="3.7039" stroke-miterlimit="10"/>
<path d="M189.452 -63.9825L-6.95609 80.6982" stroke="#F50A23" stroke-width="3.7039" stroke-miterlimit="10"/>
<path d="M189.452 -54.5007L-6.95609 90.1799" stroke="#F50A23" stroke-width="3.7039" stroke-miterlimit="10"/>
<path d="M189.452 -45.0323L-6.95609 99.6482" stroke="#F50A23" stroke-width="3.7039" stroke-miterlimit="10"/>
<path d="M189.452 -35.544L-6.95609 109.137" stroke="#F50A23" stroke-width="3.7039" stroke-miterlimit="10"/>
<path d="M189.452 -26.0756L-6.95609 118.605" stroke="#F50A23" stroke-width="3.7039" stroke-miterlimit="10"/>
<path d="M189.452 -16.5939L-6.95609 128.088" stroke="#F50A23" stroke-width="3.7039" stroke-miterlimit="10"/>
<path d="M189.452 -7.12552L-6.95609 137.555" stroke="#F50A23" stroke-width="3.7039" stroke-miterlimit="10"/>
<path d="M189.452 2.3562L-6.95609 147.037" stroke="#F50A23" stroke-width="3.7039" stroke-miterlimit="10"/>
<path d="M189.452 11.8246L-6.95609 156.505" stroke="#F50A23" stroke-width="3.7039" stroke-miterlimit="10"/>
<path d="M189.452 21.3063L-6.95609 165.987" stroke="#F50A23" stroke-width="3.7039" stroke-miterlimit="10"/>
<path d="M189.452 30.7747L-6.95609 175.455" stroke="#F50A23" stroke-width="3.7039" stroke-miterlimit="10"/>
<path d="M189.452 40.2564L-6.95609 184.937" stroke="#F50A23" stroke-width="3.7039" stroke-miterlimit="10"/>
<path d="M189.452 49.7314L-6.95609 194.412" stroke="#F50A23" stroke-width="3.7039" stroke-miterlimit="10"/>
<path d="M189.452 59.2131L-6.95609 203.894" stroke="#F50A23" stroke-width="3.7039" stroke-miterlimit="10"/>
<path d="M189.452 68.6815L-6.95609 213.362" stroke="#F50A23" stroke-width="3.7039" stroke-miterlimit="10"/>
<path d="M189.452 78.1632L-6.95609 222.845" stroke="#F50A23" stroke-width="3.7039" stroke-miterlimit="10"/>
<path d="M189.452 87.6316L-6.95609 232.312" stroke="#F50A23" stroke-width="3.7039" stroke-miterlimit="10"/>
<path d="M189.452 97.1133L-6.95609 241.794" stroke="#F50A23" stroke-width="3.7039" stroke-miterlimit="10"/>
</g>
<path d="M-0.00823975 48.0038H182.992V54.0014H-0.00823975" fill="white"/>
<mask id="mask1_0_9" style="mask-type:luminance" maskUnits="userSpaceOnUse" x="-1" y="48" width="184" height="7">
<path d="M-0.0136719 48.0352H182.986V54.0328H-0.0136719" fill="white"/>
</mask>
<g mask="url(#mask1_0_9)">
<path d="M-143.66 -87.3573L3.62108 110.786" stroke="#7CA67A" stroke-width="3.75367" stroke-miterlimit="10"/>
<path d="M-134.021 -87.3573L13.2594 110.786" stroke="#7CA67A" stroke-width="3.75367" stroke-miterlimit="10"/>
<path d="M-124.363 -87.3573L22.9178 110.786" stroke="#7CA67A" stroke-width="3.75367" stroke-miterlimit="10"/>
<path d="M-114.724 -87.3573L32.5562 110.786" stroke="#7CA67A" stroke-width="3.75367" stroke-miterlimit="10"/>
<path d="M-105.086 -87.3573L42.1945 110.786" stroke="#7CA67A" stroke-width="3.75367" stroke-miterlimit="10"/>
<path d="M-95.4411 -87.3573L51.8396 110.786" stroke="#7CA67A" stroke-width="3.75367" stroke-miterlimit="10"/>
<path d="M-85.776 -87.3573L61.5047 110.786" stroke="#7CA67A" stroke-width="3.75367" stroke-miterlimit="10"/>
<path d="M-76.131 -87.3573L71.1497 110.786" stroke="#7CA67A" stroke-width="3.75367" stroke-miterlimit="10"/>
<path d="M-66.4926 -87.3573L80.7881 110.786" stroke="#7CA67A" stroke-width="3.75367" stroke-miterlimit="10"/>
<path d="M-56.8409 -87.3573L90.4398 110.786" stroke="#7CA67A" stroke-width="3.75367" stroke-miterlimit="10"/>
<path d="M-47.1959 -87.3573L100.085 110.786" stroke="#7CA67A" stroke-width="3.75367" stroke-miterlimit="10"/>
<path d="M-37.5575 -87.3573L109.723 110.786" stroke="#7CA67A" stroke-width="3.75367" stroke-miterlimit="10"/>
<path d="M-27.9058 -87.3573L119.375 110.786" stroke="#7CA67A" stroke-width="3.75367" stroke-miterlimit="10"/>
<path d="M-18.2608 -87.3573L129.02 110.786" stroke="#7CA67A" stroke-width="3.75367" stroke-miterlimit="10"/>
<path d="M-8.62244 -87.3573L138.658 110.786" stroke="#7CA67A" stroke-width="3.75367" stroke-miterlimit="10"/>
<path d="M1.02258 -87.3573L148.303 110.786" stroke="#7CA67A" stroke-width="3.75367" stroke-miterlimit="10"/>
<path d="M10.6877 -87.3573L157.968 110.786" stroke="#7CA67A" stroke-width="3.75367" stroke-miterlimit="10"/>
<path d="M20.3328 -87.3573L167.613 110.786" stroke="#7CA67A" stroke-width="3.75367" stroke-miterlimit="10"/>
<path d="M29.9711 -87.3573L177.252 110.786" stroke="#7CA67A" stroke-width="3.75367" stroke-miterlimit="10"/>
<path d="M39.6161 -87.3573L186.897 110.786" stroke="#7CA67A" stroke-width="3.75367" stroke-miterlimit="10"/>
<path d="M49.2679 -87.3573L196.549 110.786" stroke="#7CA67A" stroke-width="3.75367" stroke-miterlimit="10"/>
<path d="M58.9062 -87.3573L206.187 110.786" stroke="#7CA67A" stroke-width="3.75367" stroke-miterlimit="10"/>
<path d="M68.5579 -87.3573L215.839 110.786" stroke="#7CA67A" stroke-width="3.75367" stroke-miterlimit="10"/>
<path d="M78.203 -87.3573L225.484 110.786" stroke="#7CA67A" stroke-width="3.75367" stroke-miterlimit="10"/>
<path d="M87.848 -87.3573L235.129 110.786" stroke="#7CA67A" stroke-width="3.75367" stroke-miterlimit="10"/>
<path d="M97.493 -87.3573L244.774 110.786" stroke="#7CA67A" stroke-width="3.75367" stroke-miterlimit="10"/>
<path d="M107.151 -87.3573L254.432 110.786" stroke="#7CA67A" stroke-width="3.75367" stroke-miterlimit="10"/>
<path d="M116.803 -87.3573L264.084 110.786" stroke="#7CA67A" stroke-width="3.75367" stroke-miterlimit="10"/>
<path d="M126.442 -87.3573L273.722 110.786" stroke="#7CA67A" stroke-width="3.75367" stroke-miterlimit="10"/>
<path d="M136.087 -87.3573L283.367 110.786" stroke="#7CA67A" stroke-width="3.75367" stroke-miterlimit="10"/>
</g>
<path d="M90.961 53.8923L112.067 45.8263V39.2821L90.961 47.3482C90.7999 47.4089 90.6951 47.5626 90.6951 47.7334V54.2776C90.6951 54.1068 90.8009 53.9531 90.961 53.8923Z" fill="#F4FF39"/>
<path d="M90.961 48.1229L112.067 56.189V62.7331L90.961 54.6671C90.7999 54.6063 90.6951 54.4526 90.6951 54.2818V47.7377C90.6951 47.9085 90.8009 48.0622 90.961 48.1229Z" fill="#F4FF39"/>
<path d="M92.0098 48.1229L70.9038 56.189V62.7331L92.0098 54.6671C92.1709 54.6063 92.2757 54.4526 92.2757 54.2818V47.7377C92.2757 47.9085 92.1699 48.0622 92.0098 48.1229Z" fill="#F4FF39"/>
<path d="M92.0098 53.8923L70.9038 45.8263V39.2821L92.0098 47.3482C92.1709 47.4089 92.2757 47.5626 92.2757 47.7334V54.2776C92.2757 54.1068 92.1699 53.9531 92.0098 53.8923Z" fill="#F4FF39"/>
</g>
<defs>
<clipPath id="clip0_0_9">
<rect width="183" height="102" fill="white"/>
</clipPath>
</defs>
</svg>
