<?xml version="1.0" encoding="utf-8"?>
            <!-- Generator: Adobe Illustrator 26.5.3, SVG Export Plug-In . SVG Version: 6.00 Build 0)  -->
            <svg version="1.1" id="stripeLace" xmlns="http://www.w3.org/2000/svg" xmlns:xlink="http://www.w3.org/1999/xlink" x="0px" y="0px"
                 viewBox="0 0 12 334.5" style="enable-background:new 0 0 12 334.5;" xml:space="preserve">
            <style type="text/css">
                .st0{clip-path:url(#SVGID_00000161592043816591781510000008063557913504437424_);}
                .st2{fill:#FFFFFF;filter:url(#Adobe_OpacityMaskFilter);}
                .st3{mask:url(#mask0_8109_35514_00000083790251787584582760000018072973685161062541_);}
            </style>
            <g>
                <defs>
                    <rect id="SVGID_1_" x="0" y="0" width="12" height="334.5"/>
                </defs>
                <clipPath id="SVGID_00000170982989599266282620000001870101038889942703_">
                    <use xlink:href="#SVGID_1_"  style="overflow:visible;"/>
                </clipPath>
                <g style="clip-path:url(#SVGID_00000170982989599266282620000001870101038889942703_);">
                    <path class="stripe-bg-color" d="M12,334.5L6.1,330L0,334.5L0,0l12,0L12,334.5z" fill="#FFFFFF"/>
                    <defs>
                        <filter id="Adobe_OpacityMaskFilter" filterUnits="userSpaceOnUse" x="-30.3" y="35.9" width="77.3" height="313.8">
                            <feColorMatrix  type="matrix" values="1 0 0 0 0  0 1 0 0 0  0 0 1 0 0  0 0 0 1 0"/>
                        </filter>
                    </defs>
                    
                        <mask maskUnits="userSpaceOnUse" x="-30.3" y="35.9" width="77.3" height="313.8" id="mask0_8109_35514_00000083790251787584582760000018072973685161062541_">
                        <path class="st2" d="M12,334.5L6.1,330L0,334.5L0,0l12,0L12,334.5z"/>
                    </mask>
                    <g class="st3">
                        <path class="stripe-color" d="M47,40.6l-4.8-4.8l-67.8,50l4.8,4.8L47,40.6z" fill="#5F9D6D"/>
                        <path class="stripe-color" d="M47,57.6l-4.8-4.8l-67.8,50l4.8,4.8L47,57.6z" fill="#5F9D6D"/>
                        <path class="stripe-color" d="M47,74.7l-4.8-4.8l-67.8,50l4.8,4.8L47,74.7z" fill="#5F9D6D"/>
                        <path class="stripe-color" d="M47,91.7l-4.8-4.8l-67.8,50l4.8,4.8L47,91.7z" fill="#5F9D6D"/>
                        <path class="stripe-color" d="M47,108.7l-4.8-4.8l-67.8,50l4.8,4.8L47,108.7z" fill="#5F9D6D"/>
                        <path class="stripe-color" d="M47,125.8l-4.8-4.8l-67.8,50l4.8,4.8L47,125.8z" fill="#5F9D6D"/>
                        <path class="stripe-color" d="M47,142.8l-4.8-4.8l-67.8,50l4.8,4.8L47,142.8z" fill="#5F9D6D"/>
                        <path class="stripe-color" d="M47,159.8l-4.8-4.8l-67.8,50l4.8,4.8L47,159.8z" fill="#5F9D6D"/>
                        <path class="stripe-color" d="M47,176.8l-4.8-4.8l-67.8,50l4.8,4.8L47,176.8z" fill="#5F9D6D"/>
                        <path class="stripe-color" d="M47,193.9l-4.8-4.8l-67.8,50l4.8,4.8L47,193.9z" fill="#5F9D6D"/>
                        <path class="stripe-color" d="M47,210.9l-4.8-4.8l-67.8,50l4.8,4.8L47,210.9z" fill="#5F9D6D"/>
                        <path class="stripe-color" d="M47,227.9l-4.8-4.8l-67.8,50l4.8,4.8L47,227.9z" fill="#5F9D6D"/>
                        <path class="stripe-color" d="M47,244.9l-4.8-4.8l-67.8,50l4.8,4.8L47,244.9z" fill="#5F9D6D"/>
                        <path class="stripe-color" d="M47,262l-4.8-4.8l-67.8,50l4.8,4.8L47,262z" fill="#5F9D6D"/>
                        <path class="stripe-color" d="M47,279.1l-4.8-4.8l-67.8,50l4.8,4.8L47,279.1z" fill="#5F9D6D"/>
                        <path class="stripe-color" d="M42.3,299.7l-4.8-4.8l-67.8,50l4.8,4.8L42.3,299.7z" fill="#5F9D6D"/>
                    </g>
                </g>
            </g>
</svg>   