<svg height="250" preserveAspectRatio="xMidYMid" viewBox="0 0 300 250" width="300" xmlns="http://www.w3.org/2000/svg"><path d="m116.827 14.4c0 .077-.026.111-.059.111-.043 0-.059-.026-.068-.145 0-.034-.008-.059-.008-.093-.026-.256-.228-.451-1.039-.468-.355-.009-.71-.009-1.065-.017v3.598c0 .817 0 1.489.043 1.846.025.247.076.434.329.468.118.017.304.034.38.034.051 0 .068.026.068.051 0 .043-.043.068-.135.068-.465 0-.997-.025-1.039-.025-.043 0-.575.025-.828.025-.093 0-.135-.017-.135-.068 0-.025.016-.051.067-.051.076 0 .178-.017.254-.034.168-.034.211-.221.245-.468.042-.357.042-1.029.042-1.846v-3.598c-.414.008-.837.008-1.25.017-.524.008-.727.068-.862.272-.093.145-.118.204-.144.264-.025.068-.05.085-.084.085-.025 0-.042-.026-.042-.077 0-.085.169-.816.185-.884.017-.052.051-.162.085-.162.059 0 .144.085.372.102.245.025.566.042.667.042h3.168c.27 0 .464-.017.599-.042.127-.017.203-.043.237-.043.042 0 .042.051.042.103 0 .255-.025.842-.025.935zm-9.028-.825c-.237.051-.296.179-.296.766l-.017 4.968c0 .561-.017.604-.076.604-.067 0-.169-.094-.617-.545-.092-.085-1.309-1.335-2.204-2.305-.98-1.063-1.935-2.135-2.205-2.442l.11 4.075c.017.698.101.919.329.987.161.043.347.051.423.051.042 0 .067.017.067.051 0 .051-.05.068-.152.068-.481 0-.819-.025-.895-.025s-.431.025-.811.025c-.085 0-.135-.008-.135-.068 0-.034.025-.051.067-.051.068 0 .22-.008.347-.051.211-.059.253-.306.253-1.08v-1.259c0-3.071.017-1.965.008-3.616 0-.332.026-.425.093-.425.068 0 .212.187.296.272.127.145 1.385 1.514 2.686 2.918.837.902 1.757 1.94 2.028 2.22l-.093-4.321c-.009-.553-.068-.74-.33-.808-.152-.034-.287-.043-.363-.043-.093 0-.118-.025-.118-.059 0-.052.067-.06.169-.06.38 0 .785.025.878.025s.372-.025.718-.025c.093 0 .152.008.152.06 0 .034-.034.051-.093.059-.067.009-.118.017-.219.034zm-9.907-.008c-.228.051-.296.187-.312.484-.017.273-.017.511-.017 1.838v.91c0 .919-.102 1.94-.778 2.544-.608.544-1.241.629-1.74.629-.287 0-1.14-.034-1.74-.604-.414-.399-.735-.995-.735-2.237v-1.242c0-1.327 0-1.565-.017-1.838-.016-.289-.084-.425-.363-.484-.067-.017-.211-.026-.287-.026-.034 0-.068-.017-.068-.051 0-.051.043-.068.136-.068.38 0 .895.025.971.025s.583-.025.836-.025c.093 0 .135.017.135.068 0 .034-.033.051-.067.051-.059 0-.11.009-.211.026-.228.034-.296.187-.313.484-.017.273-.017.511-.017 1.838v1.191c0 1.225.271 1.752.634 2.101.414.392.794.468 1.275.468.516 0 1.022-.247 1.327-.612.388-.485.489-1.208.489-2.085v-1.063c0-1.327 0-1.565-.016-1.838-.017-.289-.085-.425-.364-.484-.067-.017-.211-.026-.287-.026-.034 0-.067-.017-.067-.051 0-.051.042-.068.135-.068.38 0 .844.025.895.025.059 0 .456-.025.71-.025.093 0 .135.017.135.068 0 .034-.034.051-.068.051-.059 0-.11.009-.211.026zm-9.5 6.312c-.726 0-1.444-.051-2.263-.051-.262 0-.516.025-.828.025-.093 0-.135-.017-.135-.068 0-.025.017-.051.067-.051.076 0 .178-.017.254-.034.169-.034.211-.221.245-.468.042-.357.042-1.029.042-1.846v-1.497c0-1.327 0-1.565-.017-1.838-.017-.289-.085-.425-.363-.484-.068-.017-.211-.026-.287-.026-.034 0-.068-.017-.068-.051 0-.051.042-.068.135-.068.38 0 .912.025.955.025.042 0 .659-.025.912-.025.093 0 .135.017.135.068 0 .034-.034.051-.067.051-.06 0-.178.009-.279.026-.245.042-.313.187-.33.484-.017.273-.017.511-.017 1.838v1.514c0 1.251.034 1.795.186 1.948.135.136.355.196 1.014.196.448 0 .819-.008 1.022-.255.11-.136.194-.349.22-.511.008-.068.025-.11.076-.11.042 0 .05.034.05.127 0 .094-.059.604-.126.851-.059.196-.085.23-.533.23zm-8.942 0c-.093 0-.364-.017-.609-.026-.245-.017-.481-.025-.515-.025-.27 0-.532.025-.828.025-.093 0-.135-.017-.135-.059 0-.026.017-.06.127-.06.067 0 .127-.008.203-.025.168-.034.202-.23.236-.477.042-.357.042-1.029.042-1.846v-1.497c0-1.327 0-1.565-.017-1.838-.016-.289-.084-.425-.363-.484-.067-.017-.211-.026-.245-.026-.076 0-.11-.017-.11-.051 0-.051.043-.068.136-.068.38 0 .912.025.954.025.203 0 .532-.025.921-.025 1.385 0 1.689.851 1.689 1.276 0 .698-.397 1.114-.794 1.531.625.196 1.462.8 1.462 1.795 0 .911-.71 1.855-2.154 1.855zm.844-4.756c0-.706-.312-1.463-1.14-1.463-.093 0-.27.009-.406.043-.076.017-.101.042-.101.093v2.28c0 .06.017.077.059.094.051.008.203.034.515.034.474 0 .592-.017.769-.221.178-.205.304-.511.304-.86zm-.236 1.574c-.287-.195-.499-.221-.701-.247-.11-.017-.533-.017-.659-.017-.034 0-.051.017-.051.06v.485c0 .655 0 1.71.009 1.837.025.417.025.536.287.664.228.111.591.128.743.128.456 0 1.191-.247 1.191-1.208 0-.511-.169-1.251-.819-1.702zm-11.59-3.037c-.168.102-.261.204-.447.434-.279.34-1.462 2.339-1.614 2.705-.126.307-.126.57-.126.851v.732c0 .136 0 .493.025.85.017.247.093.434.346.468.119.017.304.034.38.034.051 0 .068.026.068.051 0 .043-.042.068-.135.068-.465 0-.997-.025-1.039-.025s-.575.025-.828.025c-.093 0-.135-.017-.135-.068 0-.025.017-.051.067-.051.077 0 .178-.017.254-.034.169-.034.245-.221.262-.468.025-.357.025-.714.025-.85v-.732c0-.459-.084-.647-.194-.893-.059-.136-1.191-2.008-1.487-2.45-.211-.315-.422-.528-.574-.63-.127-.085-.287-.136-.364-.136-.042 0-.084-.017-.084-.059 0-.035.034-.06.11-.06.16 0 .794.025.836.025.059 0 .38-.025.71-.025.093 0 .109.025.109.06 0 .034-.05.042-.126.076-.068.034-.11.085-.11.153 0 .102.042.204.11.332.135.247 1.402 2.442 1.554 2.688.161-.357 1.233-2.22 1.402-2.501.11-.179.144-.323.144-.434 0-.119-.034-.212-.135-.238-.076-.025-.127-.042-.127-.085 0-.034.051-.051.135-.051.22 0 .49.025.558.025.05 0 .659-.025.819-.025.059 0 .11.017.11.051 0 .043-.042.068-.11.068-.093 0-.253.034-.389.119zm-8.303 6.219c-.726 0-1.444-.051-2.264-.051-.262 0-.515.025-.828.025-.093 0-.135-.017-.135-.068 0-.025.017-.051.068-.051.076 0 .177-.017.253-.034.169-.034.211-.221.245-.468.042-.357.042-1.029.042-1.846v-1.497c0-1.327 0-1.565-.016-1.838-.017-.289-.085-.425-.364-.484-.067-.017-.211-.026-.287-.026-.034 0-.067-.017-.067-.051 0-.051.042-.068.135-.068.38 0 .912.025.954.025s.659-.025.912-.025c.093 0 .136.017.136.068 0 .034-.034.051-.068.051-.059 0-.177.009-.279.026-.245.042-.312.187-.329.484-.017.273-.017.511-.017 1.838v1.514c0 1.251.034 1.795.186 1.948.135.136.355.196 1.013.196.448 0 .82-.008 1.023-.255.109-.136.194-.349.219-.511.009-.068.026-.11.076-.11.042 0 .051.034.051.127 0 .094-.059.604-.127.851-.059.196-.084.23-.532.23zm-8.192-.051c-.042 0-.574.025-.828.025-.093 0-.135-.017-.135-.068 0-.025.017-.051.093-.051.051 0 .144-.008.22-.025.169-.034.219-.23.253-.477.042-.357.042-1.029.042-1.846v-1.497c0-1.327 0-1.565-.017-1.838-.016-.289-.101-.433-.287-.476-.093-.025-.202-.034-.262-.034-.033 0-.067-.017-.067-.051 0-.051.042-.068.135-.068.279 0 .811.025.853.025s.575-.025.828-.025c.093 0 .135.017.135.068 0 .034-.034.051-.067.051-.06 0-.11.009-.212.026-.228.042-.295.187-.312.484-.017.273-.017.511-.017 1.838v1.497c0 .817 0 1.489.042 1.846.025.247.076.434.33.468.118.017.295.034.346.034.076 0 .101.026.101.051 0 .043-.033.068-.126.068-.465 0-1.006-.025-1.048-.025zm-6.035-.026c-.194-.017-.237-.042-.237-.085 0-.034.017-.042.059-.059.06-.026.051-.154.034-.307l-.405-4.44-2.095 4.474c-.177.375-.203.451-.279.451-.059 0-.101-.085-.262-.391-.219-.417-.946-1.889-.988-1.974-.076-.153-1.047-2.254-1.14-2.484l-.347 4.007c-.008.136-.017.255-.017.4 0 .213.102.281.228.306.144.034.254.034.305.034.05 0 .084.017.084.043 0 .059-.042.076-.127.076-.312 0-.743-.025-.811-.025-.076 0-.481.025-.709.025-.085 0-.144-.008-.144-.068 0-.034.042-.051.085-.051.067 0 .126 0 .253-.025.279-.051.296-.358.338-.706l.608-5.53c.009-.094.042-.17.093-.17s.085.034.127.127l2.585 5.351 2.483-5.342c.034-.077.068-.136.127-.136s.084.068.101.23l.566 5.223c.034.306.093.783.456.902.245.076.44.076.524.076.042 0 .093.009.093.051 0 .051-.025.068-.127.068-.186 0-1.149-.025-1.461-.051zm-10.904.077c-.625 0-.904-.017-1.234-.026-.338-.008-.726-.025-1.056-.025-.202 0-.405.034-.625.025-.093 0-.135-.017-.135-.068 0-.025.042-.042.093-.051.085-.008.135-.008.194-.025.178-.043.288-.162.304-.8.009-.332.017-.766.017-1.523v-1.497c0-1.327 0-1.565-.017-1.838-.016-.289-.084-.425-.363-.484-.059-.017-.169-.017-.245-.026-.059-.008-.11-.017-.11-.051 0-.051.043-.068.136-.068.194 0 .422 0 .954.025.059 0 1.74 0 1.935-.008.185-.009.337-.026.388-.051.051-.026.068-.034.093-.034s.034.034.034.076c0 .06-.051.162-.068.4-.008.128-.017.29-.034.511-.008.085-.033.144-.067.144-.051 0-.068-.042-.068-.11 0-.111-.017-.213-.042-.281-.059-.196-.236-.281-.608-.315-.144-.017-1.064-.025-1.157-.025-.034 0-.051.025-.051.085v2.348c0 .059.008.085.051.085.109 0 1.148 0 1.343-.017.228-.017.338-.043.422-.145.042-.051.068-.085.101-.085.026 0 .043.017.043.068s-.043.196-.068.477c-.025.263-.025.459-.034.578-.008.085-.025.128-.059.128-.05 0-.059-.068-.059-.136 0-.077-.008-.162-.034-.239-.034-.127-.135-.246-.439-.28-.228-.026-1.064-.043-1.208-.043-.042 0-.059.026-.059.06v.748c0 .289-.009 1.276 0 1.455.017.349.068.536.279.621.143.06.371.077.701.077.253 0 .532-.009.76-.077.27-.085.363-.264.431-.63.017-.093.034-.127.076-.127.051 0 .051.068.051.127 0 .068-.068.647-.11.826-.059.221-.127.221-.456.221z" fill="#fff" fill-rule="evenodd"/></svg>