<svg height="250" preserveAspectRatio="xMidYMid" viewBox="0 0 300 250" width="300" xmlns="http://www.w3.org/2000/svg"><path d="m267.395 19.34c.026.247.076.434.33.468.118.017.295.034.346.034.076 0 .101.026.101.051 0 .043-.033.068-.126.068-.465 0-1.005-.025-1.048-.025-.042 0-.574.025-.827.025-.093 0-.136-.017-.136-.068 0-.025.017-.051.093-.051.051 0 .144-.008.22-.025.169-.034.22-.23.253-.477.043-.357.043-1.029.043-1.846v-1.497c0-1.327 0-1.565-.017-1.837-.017-.29-.102-.434-.288-.477-.092-.025-.202-.034-.261-.034-.034 0-.068-.017-.068-.051 0-.051.042-.068.135-.068.279 0 .811.026.853.026.043 0 .575-.026.828-.026.093 0 .135.017.135.068 0 .034-.033.051-.067.051-.059 0-.11.009-.211.026-.229.042-.296.187-.313.485-.017.272-.017.51-.017 1.837v1.497c0 .817 0 1.489.042 1.846zm-5.34.621c-.735 0-.929-.093-1.326-.408-.507-.4-2.027-2.042-2.771-2.935v.876c0 .817 0 1.489.043 1.846.025.247.076.434.329.468.118.017.287.034.338.034.076 0 .101.034.101.06 0 .042-.034.059-.126.059-.465 0-.997-.025-1.039-.025-.043 0-.541.025-.795.025-.092 0-.135-.008-.135-.059 0-.026.017-.06.093-.06.051 0 .144-.008.22-.025.169-.034.22-.23.253-.477.043-.357.043-1.029.043-1.846v-1.497c0-1.327 0-1.565-.017-1.837-.017-.29-.102-.434-.288-.477-.092-.025-.245-.034-.304-.034-.067 0-.093-.017-.093-.051 0-.051.043-.068.136-.068.278 0 .844.026.887.026.042 0 .574-.026.827-.026.093 0 .136.017.136.06 0 .034-.017.051-.093.059-.093.009-.102.009-.186.017-.228.026-.296.196-.313.494-.017.272-.017.51-.017 1.837v.545c.262-.256 1.411-1.472 1.926-2.008.507-.527.541-.613.541-.715 0-.068-.042-.136-.11-.161-.059-.026-.076-.043-.076-.077s.051-.051.127-.051c.245 0 .219.026.507.026.261 0 .76-.026.895-.026.118 0 .144.026.144.06s-.017.051-.093.059c-.161.017-.313.051-.431.102-.211.085-.372.187-.879.681-.743.723-1.706 1.684-1.926 1.931.533.587 2.07 2.161 2.467 2.535.693.655.988.842 1.394.919.076.017.16.025.245.025.067 0 .118.017.118.06 0 .042-.034.059-.127.059zm-10.408-3.649c.996.791 1.233 1.319 1.233 1.999 0 .349-.135.995-.718 1.412-.363.255-.819.358-1.276.358-.397 0-.785-.06-1.131-.23-.119-.06-.127-.094-.127-.323 0-.426.034-.766.042-.902.009-.094.025-.136.068-.136.05 0 .059.025.059.093 0 .077 0 .196.025.315.127.63.684.868 1.25.868.811 0 1.208-.587 1.208-1.132 0-.587-.245-.927-.971-1.531l-.38-.315c-.896-.74-1.098-1.267-1.098-1.846 0-.91.675-1.531 1.748-1.531.33 0 .575.034.786.085.16.034.228.043.295.043.068 0 .085.017.085.059 0 .043-.034.323-.034.902 0 .136-.017.196-.059.196-.051 0-.059-.043-.068-.111-.008-.102-.059-.332-.109-.425-.051-.094-.279-.451-1.056-.451-.583 0-1.039.366-1.039.987 0 .485.219.791 1.03 1.429zm-5.933-2.629c-.237.051-.296.179-.296.766l-.017 4.968c0 .561-.017.604-.076.604-.068 0-.169-.094-.617-.544-.093-.086-1.309-1.336-2.204-2.306-.98-1.063-1.935-2.135-2.205-2.441l.11 4.075c.017.697.101.918.329.986.161.043.347.051.423.051.042 0 .067.017.067.051 0 .051-.051.068-.152.068-.481 0-.819-.025-.895-.025s-.431.025-.811.025c-.085 0-.135-.008-.135-.068 0-.034.025-.051.067-.051.068 0 .22-.008.347-.051.211-.059.253-.306.253-1.08v-1.259c0-3.071.017-1.965.008-3.616 0-.331.026-.425.093-.425.068 0 .212.187.296.272.127.145 1.385 1.515 2.686 2.918.836.902 1.757 1.94 2.027 2.221l-.092-4.322c-.009-.553-.068-.74-.33-.808-.152-.034-.287-.043-.363-.043-.093 0-.118-.025-.118-.059 0-.051.067-.06.169-.06.38 0 .785.026.878.026s.372-.026.718-.026c.093 0 .152.009.152.06 0 .034-.034.051-.093.059-.067.009-.118.017-.219.034zm-11.281 6.253c-.042 0-.574.025-.827.025-.093 0-.136-.017-.136-.068 0-.025.017-.051.093-.051.051 0 .144-.008.22-.025.169-.034.22-.23.253-.477.043-.357.043-1.029.043-1.846v-1.497c0-1.327 0-1.565-.017-1.837-.017-.29-.102-.434-.287-.477-.093-.025-.203-.034-.262-.034-.034 0-.068-.017-.068-.051 0-.051.042-.068.135-.068.279 0 .811.026.853.026.043 0 .575-.026.828-.026.093 0 .135.017.135.068 0 .034-.033.051-.067.051-.059 0-.11.009-.211.026-.228.042-.296.187-.313.485-.017.272-.017.51-.017 1.837v1.497c0 .817 0 1.489.042 1.846.026.247.076.434.33.468.118.017.296.034.346.034.076 0 .102.026.102.051 0 .043-.034.068-.127.068-.465 0-1.005-.025-1.048-.025zm-5.956-3.624c.997.791 1.234 1.319 1.234 1.999 0 .349-.135.995-.718 1.412-.363.255-.82.358-1.276.358-.397 0-.785-.06-1.132-.23-.118-.06-.126-.094-.126-.323 0-.426.033-.766.042-.902.008-.094.025-.136.067-.136.051 0 .06.025.06.093 0 .077 0 .196.025.315.127.63.684.868 1.25.868.811 0 1.208-.587 1.208-1.132 0-.587-.245-.927-.971-1.531l-.381-.315c-.895-.74-1.098-1.267-1.098-1.846 0-.91.676-1.531 1.749-1.531.329 0 .574.034.785.085.161.034.229.043.296.043.068 0 .085.017.085.059 0 .043-.034.323-.034.902 0 .136-.017.196-.059.196-.051 0-.059-.043-.068-.111-.008-.102-.059-.332-.11-.425-.05-.094-.278-.451-1.056-.451-.582 0-1.039.366-1.039.987 0 .485.22.791 1.031 1.429zm-6.799 3.632c-.16-.008-.253-.008-.253-.059 0-.034.025-.051.059-.06.051-.017.102-.093.051-.229l-.786-2.093c-.017-.034-.034-.051-.076-.051h-1.816c-.042 0-.067.025-.084.068l-.507 1.506c-.076.212-.118.417-.118.57 0 .17.16.246.304.246h.076c.084 0 .109.017.109.051 0 .051-.076.068-.152.068-.202 0-.54-.025-.633-.025s-.558.025-.955.025c-.109 0-.16-.017-.16-.068 0-.034.042-.051.118-.051.059 0 .135-.008.203-.017.388-.051.557-.374.709-.799l1.918-5.283c.101-.281.135-.332.186-.332.05 0 .084.043.186.306.126.324 1.453 3.837 1.968 5.13.304.757.549.893.726.944.127.043.262.051.33.051.05 0 .093.009.093.051 0 .051-.076.068-.169.068-.127 0-.744 0-1.327-.017zm-1.081-2.858-.802-2.297c-.042-.127-.085-.127-.127 0l-.743 2.297c-.017.043 0 .06.025.06h1.613c.043 0 .043-.026.034-.06zm-7.208 2.875c-.473 0-.684-.042-.903-.161-.364-.196-.659-.613-1.141-1.251-.355-.468-.752-1.038-.921-1.259-.033-.034-.059-.051-.109-.051l-1.039-.017c-.043 0-.06.026-.06.068v.204c0 .817 0 1.489.043 1.846.025.247.076.434.329.468.118.017.304.034.38.034.051 0 .068.026.068.051 0 .043-.042.068-.135.068-.465 0-.997-.025-1.039-.025-.009 0-.541.025-.794.025-.093 0-.135-.017-.135-.068 0-.025.016-.051.067-.051.076 0 .177-.017.254-.034.168-.034.211-.221.244-.468.043-.357.043-1.029.043-1.846v-1.497c0-1.327 0-1.565-.017-1.837-.017-.29-.085-.426-.363-.485-.068-.017-.212-.026-.288-.026-.033 0-.067-.017-.067-.051 0-.051.042-.068.135-.068.38 0 .912.026.954.026.093 0 .735-.026.997-.026.532 0 1.098.051 1.546.374.211.154.583.57.583 1.157 0 .63-.262 1.259-1.022 1.966.692.893 1.267 1.65 1.757 2.177.456.485.819.579 1.03.613.161.025.279.025.33.025.042 0 .076.026.076.051 0 .051-.051.068-.203.068zm-2.078-4.457c0-1.064-.557-1.702-1.461-1.702-.253 0-.481.026-.566.051-.042.017-.068.051-.068.102v2.782c0 .043.017.077.06.102.126.077.515.136.887.136.202 0 .439-.025.633-.161.296-.204.515-.664.515-1.31zm-7.358 4.457c-.735 0-.929-.093-1.326-.408-.507-.4-2.027-2.042-2.771-2.935v.876c0 .817 0 1.489.043 1.846.025.247.076.434.329.468.118.017.287.034.338.034.076 0 .101.034.101.06 0 .042-.034.059-.126.059-.465 0-.997-.025-1.039-.025-.043 0-.541.025-.795.025-.092 0-.135-.008-.135-.059 0-.026.017-.06.093-.06.051 0 .144-.008.22-.025.169-.034.22-.23.253-.477.043-.357.043-1.029.043-1.846v-1.497c0-1.327 0-1.565-.017-1.837-.017-.29-.102-.434-.288-.477-.092-.025-.245-.034-.304-.034-.067 0-.093-.017-.093-.051 0-.051.043-.068.136-.068.278 0 .844.026.887.026.042 0 .574-.026.827-.026.093 0 .136.017.136.06 0 .034-.017.051-.093.059-.093.009-.102.009-.186.017-.228.026-.296.196-.313.494-.017.272-.017.51-.017 1.837v.545c.262-.256 1.411-1.472 1.926-2.008.507-.527.541-.613.541-.715 0-.068-.042-.136-.11-.161-.059-.026-.076-.043-.076-.077s.051-.051.127-.051c.245 0 .219.026.507.026.261 0 .76-.026.895-.026.118 0 .144.026.144.06s-.017.051-.093.059c-.161.017-.313.051-.431.102-.211.085-.372.187-.879.681-.743.723-1.706 1.684-1.926 1.931.533.587 2.07 2.161 2.467 2.535.693.655.988.842 1.394.919.076.017.16.025.245.025.067 0 .118.017.118.06 0 .042-.034.059-.127.059zm-15.052-6.278c-.237.051-.296.179-.296.766l-.017 4.968c0 .561-.017.604-.076.604-.068 0-.169-.094-.617-.544-.093-.086-1.309-1.336-2.204-2.306-.98-1.063-1.935-2.135-2.205-2.441l.11 4.075c.017.697.101.918.329.986.161.043.347.051.423.051.042 0 .067.017.067.051 0 .051-.051.068-.152.068-.481 0-.819-.025-.895-.025s-.431.025-.811.025c-.085 0-.135-.008-.135-.068 0-.034.025-.051.067-.051.068 0 .22-.008.347-.051.211-.059.253-.306.253-1.08v-1.259c0-3.071.017-1.965.008-3.616 0-.331.026-.425.093-.425.068 0 .211.187.296.272.127.145 1.385 1.515 2.686 2.918.836.902 1.757 1.94 2.027 2.221l-.092-4.322c-.009-.553-.068-.74-.33-.808-.152-.034-.287-.043-.363-.043-.093 0-.118-.025-.118-.059 0-.051.067-.06.169-.06.38 0 .785.026.878.026s.372-.026.718-.026c.093 0 .152.009.152.06 0 .034-.034.051-.093.059-.067.009-.118.017-.219.034zm-11.289 6.253c-.042 0-.574.025-.828.025-.093 0-.135-.017-.135-.068 0-.025.017-.051.068-.051.076 0 .177-.017.253-.034.169-.034.211-.221.245-.468.042-.357.042-1.029.042-1.846v-.893c0-.034-.025-.051-.05-.051h-3.582c-.025 0-.051.009-.051.051v.893c0 .817 0 1.489.042 1.846.026.247.076.434.33.468.118.017.304.034.38.034.051 0 .068.026.068.051 0 .043-.043.068-.136.068-.464 0-.996-.025-1.039-.025-.042 0-.574.025-.827.025-.093 0-.136-.017-.136-.068 0-.025.017-.051.068-.051.076 0 .177-.017.253-.034.169-.034.212-.221.245-.468.043-.357.043-1.029.043-1.846v-1.497c0-1.327 0-1.565-.017-1.837-.017-.29-.085-.426-.363-.485-.068-.017-.212-.026-.288-.026-.033 0-.067-.017-.067-.051 0-.051.042-.068.135-.068.38 0 .912.026.954.026.043 0 .575-.026.828-.026.093 0 .135.017.135.068 0 .034-.033.051-.067.051-.059 0-.11.009-.211.026-.228.042-.296.187-.313.485-.017.272-.017.51-.017 1.837v.179c0 .042.026.051.051.051h3.582c.025 0 .05-.009.05-.051v-.179c0-1.327 0-1.565-.017-1.837-.017-.29-.084-.426-.363-.485-.068-.017-.211-.026-.287-.026-.034 0-.068-.017-.068-.051 0-.051.043-.068.135-.068.381 0 .913.026.955.026s.574-.026.828-.026c.093 0 .135.017.135.068 0 .034-.034.051-.068.051-.059 0-.109.009-.211.026-.228.042-.295.187-.312.485-.017.272-.017.51-.017 1.837v1.497c0 .817 0 1.489.042 1.846.025.247.076.434.329.468.119.017.305.034.381.034.05 0 .067.026.067.051 0 .043-.042.068-.135.068-.465 0-.997-.025-1.039-.025zm-12.307.145c-2.315 0-3.278-1.812-3.278-3.344 0-1.378.997-3.326 3.328-3.326 1.901 0 3.32 1.208 3.32 3.19 0 1.906-1.335 3.48-3.37 3.48zm2.559-3.242c0-2.041-1.233-3.139-2.568-3.139-1.411 0-2.466.936-2.466 2.799 0 1.982 1.182 3.258 2.703 3.258.76 0 2.331-.442 2.331-2.918zm-9.555-3.173c-.228.026-.279.196-.296.494-.017.272-.017.51-.017 1.837v2.042c0 1.378 0 1.905-.253 2.509-.178.426-.549.826-1.233 1.302-.11.077-.245.17-.33.213-.017.008-.034.017-.059.017s-.059-.017-.059-.051c0-.051.042-.077.118-.128.102-.059.22-.162.296-.238.549-.562.811-1.012.811-3.207v-2.459c0-1.327 0-1.565-.017-1.837-.017-.29-.085-.426-.363-.485-.068-.017-.186-.026-.262-.026-.059 0-.093-.025-.093-.059s.034-.06.127-.06c.38 0 .92.026.963.026.042 0 .574-.026.827-.026.093 0 .135.017.135.068 0 .034-.042.051-.092.051-.06 0-.127.009-.203.017z" fill="#fff" fill-rule="evenodd"/></svg>