<svg width="446" height="140" viewBox="0 0 446 140" fill="none" xmlns="http://www.w3.org/2000/svg">
<g style="mix-blend-mode:hard-light">
<path d="M445.587 69.5732L375.815 139.146H69.7717L1.52588e-05 69.5732L69.7717 0H375.815L445.587 69.5732Z" fill="url(#paint0_linear_10_53)" fill-opacity="0.8"/>
<path d="M445.587 69.5732L375.815 139.146H69.7717L1.52588e-05 69.5732L69.7717 0H375.815L445.587 69.5732Z" fill="url(#paint1_linear_10_53)" fill-opacity="0.8"/>
<path d="M445.587 69.5732L375.815 139.146H69.7717L1.52588e-05 69.5732L69.7717 0H375.815L445.587 69.5732Z" fill="url(#paint2_linear_10_53)" fill-opacity="0.8"/>
<path d="M445.587 69.5732L375.815 139.146H69.7717L1.52588e-05 69.5732L69.7717 0H375.815L445.587 69.5732Z" fill="url(#paint3_linear_10_53)" fill-opacity="0.8"/>
</g>
<defs>
<linearGradient id="paint0_linear_10_53" x1="282.772" y1="70" x2="519.446" y2="69.5733" gradientUnits="userSpaceOnUse">
<stop stop-color="#EE001E" stop-opacity="0"/>
<stop offset="1" stop-color="#F8FF3C"/>
</linearGradient>
<linearGradient id="paint1_linear_10_53" x1="282.772" y1="70" x2="519.446" y2="69.5733" gradientUnits="userSpaceOnUse">
<stop stop-color="#EE001E" stop-opacity="0"/>
<stop offset="1" stop-color="#F8FF3C"/>
</linearGradient>
<linearGradient id="paint2_linear_10_53" x1="282.772" y1="70" x2="519.446" y2="69.5733" gradientUnits="userSpaceOnUse">
<stop stop-color="#EE001E" stop-opacity="0"/>
<stop offset="1" stop-color="#F8FF3C"/>
</linearGradient>
<linearGradient id="paint3_linear_10_53" x1="185" y1="70" x2="421.674" y2="69.5733" gradientUnits="userSpaceOnUse">
<stop offset="0.399038" stop-color="#F8FF3C" stop-opacity="0"/>
<stop offset="1" stop-color="#F8FF3C"/>
</linearGradient>
</defs>
</svg>
